<?xml version="1.0" encoding="UTF-8"?>
<svg width="20px" height="16px" viewBox="0 0 20 16" version="1.1" xmlns="http://www.w3.org/2000/svg" xmlns:xlink="http://www.w3.org/1999/xlink">
    <!-- Generator: Sketch 51.2 (57519) - http://www.bohemiancoding.com/sketch -->
    <title>email-icon</title>
    <desc>Created with Sketch.</desc>
    <defs></defs>
    <g id="attempt-004" stroke="none" stroke-width="1" fill="none" fill-rule="evenodd">
        <g id="Artboard-2" transform="translate(-121.000000, -163.000000)" fill="#000000" fill-rule="nonzero">
            <g id="email-icon" transform="translate(121.000000, 163.000000)">
                <path d="M2,1.5 C1.72385763,1.5 1.5,1.72385763 1.5,2 L1.5,14 C1.5,14.2761424 1.72385763,14.5 2,14.5 L18,14.5 C18.2761424,14.5 18.5,14.2761424 18.5,14 L18.5,2 C18.5,1.72385763 18.2761424,1.5 18,1.5 L2,1.5 Z M2,0 L18,0 C19.1045695,-2.02906125e-16 20,0.8954305 20,2 L20,14 C20,15.1045695 19.1045695,16 18,16 L2,16 C0.8954305,16 1.3527075e-16,15.1045695 0,14 L0,2 C-1.3527075e-16,0.8954305 0.8954305,2.02906125e-16 2,0 Z" id="Rectangle-25"></path>
                <path d="M1.5,4.16368891 L9.74319372,9.09806915 C9.90131561,9.192721 10.0986844,9.192721 10.2568063,9.09806915 L18.5,4.16368891 L18.5,2 C18.5,1.72385763 18.2761424,1.5 18,1.5 L2,1.5 C1.72385763,1.5 1.5,1.72385763 1.5,2 L1.5,4.16368891 Z M2,0 L18,0 C19.1045695,-2.02906125e-16 20,0.8954305 20,2 L20,5.01399457 L11.0272251,10.3851025 C10.3947375,10.7637099 9.60526245,10.7637099 8.97277487,10.3851025 L0,5.01399457 L0,2 C-1.3527075e-16,0.8954305 0.8954305,2.02906125e-16 2,0 Z" id="Path"></path>
            </g>
        </g>
    </g>
</svg>