<?xml version="1.0" encoding="UTF-8"?>
<svg width="20px" height="20px" viewBox="0 0 20 20" version="1.1" xmlns="http://www.w3.org/2000/svg" xmlns:xlink="http://www.w3.org/1999/xlink">
    <!-- Generator: Sketch 51.2 (57519) - http://www.bohemiancoding.com/sketch -->
    <title>Instagram_font_awesome</title>
    <desc>Created with Sketch.</desc>
    <defs></defs>
    <g id="attempt-003" stroke="none" stroke-width="1" fill="none" fill-rule="evenodd">
        <g id="Desktop-HD-Copy-59" transform="translate(-1300.000000, -86.000000)" fill="#000000" fill-rule="nonzero">
            <g id="Instagram_font_awesome" transform="translate(1300.000000, 86.000000)">
                <path d="M19.5909091,10.1363636 C19.5909091,12.0909091 19.5909091,13.4090909 19.5454545,14.1363636 C19.4545455,15.9090909 18.9545455,17.2727273 17.9545455,18.2272727 C16.9545455,19.1818182 15.6363636,19.7272727 13.8636364,19.8181818 C13.1363636,19.8636364 11.7727273,19.8636364 9.86363636,19.8636364 C7.90909091,19.8636364 6.59090909,19.8636364 5.86363636,19.8181818 C4.09090909,19.7272727 2.72727273,19.2272727 1.77272727,18.2272727 C0.818181818,17.2727273 0.272727273,15.9090909 0.181818182,14.1363636 C0.136363636,13.4090909 0.136363636,12.0454545 0.136363636,10.1363636 C0.136363636,8.22727273 0.136363636,6.86363636 0.181818182,6.13636364 C0.272727273,4.36363636 0.772727273,3 1.77272727,2.04545455 C2.72727273,1.09090909 4.09090909,0.545454545 5.86363636,0.454545455 C6.59090909,0.409090909 7.95454545,0.409090909 9.86363636,0.409090909 C11.8181818,0.409090909 13.1363636,0.409090909 13.8636364,0.454545455 C15.6363636,0.545454545 17,1.04545455 17.9545455,2.04545455 C18.9090909,3.04545455 19.4545455,4.36363636 19.5454545,6.13636364 C19.5454545,6.86363636 19.5909091,8.18181818 19.5909091,10.1363636 Z M10.8181818,2.13636364 C10.2272727,2.13636364 9.90909091,2.13636364 9.86363636,2.13636364 C9.81818182,2.13636364 9.5,2.13636364 8.90909091,2.13636364 C8.31818182,2.13636364 7.86363636,2.13636364 7.59090909,2.13636364 C7.27272727,2.13636364 6.86363636,2.13636364 6.36363636,2.18181818 C5.86363636,2.18181818 5.40909091,2.22727273 5.04545455,2.31818182 C4.68181818,2.36363636 4.36363636,2.45454545 4.13636364,2.54545455 C3.72727273,2.72727273 3.36363636,2.95454545 3,3.27272727 C2.68181818,3.59090909 2.45454545,3.95454545 2.27272727,4.40909091 C2.18181818,4.63636364 2.09090909,4.95454545 2.04545455,5.31818182 C2,5.68181818 1.95454545,6.09090909 1.90909091,6.63636364 C1.90909091,7.13636364 1.86363636,7.54545455 1.86363636,7.86363636 C1.86363636,8.18181818 1.86363636,8.63636364 1.86363636,9.18181818 C1.86363636,9.77272727 1.86363636,10.0909091 1.86363636,10.1363636 C1.86363636,10.1818182 1.86363636,10.5 1.86363636,11.0909091 C1.86363636,11.6818182 1.86363636,12.1363636 1.86363636,12.4090909 C1.86363636,12.7272727 1.86363636,13.1363636 1.90909091,13.6363636 C1.90909091,14.1363636 1.95454545,14.5909091 2.04545455,14.9545455 C2.13636364,15.3181818 2.18181818,15.6363636 2.27272727,15.8636364 C2.45454545,16.2727273 2.68181818,16.6363636 3,17 C3.31818182,17.3181818 3.68181818,17.5454545 4.13636364,17.7272727 C4.36363636,17.8181818 4.68181818,17.9090909 5.04545455,17.9545455 C5.40909091,18 5.81818182,18.0454545 6.36363636,18.0909091 C6.90909091,18.1363636 7.27272727,18.1363636 7.59090909,18.1363636 C7.90909091,18.1363636 8.36363636,18.1363636 8.90909091,18.1363636 C9.5,18.1363636 9.81818182,18.1363636 9.86363636,18.1363636 C9.90909091,18.1363636 10.2272727,18.1363636 10.8181818,18.1363636 C11.4090909,18.1363636 11.8636364,18.1363636 12.1363636,18.1363636 C12.4545455,18.1363636 12.8636364,18.1363636 13.3636364,18.0909091 C13.8636364,18.0909091 14.3181818,18.0454545 14.6818182,17.9545455 C15.0454545,17.9090909 15.3636364,17.8181818 15.5909091,17.7272727 C16,17.5454545 16.3636364,17.3181818 16.7272727,17 C17.0454545,16.6818182 17.2727273,16.3181818 17.4545455,15.8636364 C17.5454545,15.6363636 17.6363636,15.3181818 17.6818182,14.9545455 C17.7272727,14.5909091 17.7727273,14.1818182 17.8181818,13.6363636 C17.8181818,13.1363636 17.8636364,12.7272727 17.8636364,12.4090909 C17.8636364,12.0909091 17.8636364,11.6363636 17.8636364,11.0909091 C17.8636364,10.5 17.8636364,10.1818182 17.8636364,10.1363636 C17.8636364,10.0909091 17.8636364,9.77272727 17.8636364,9.18181818 C17.8636364,8.59090909 17.8636364,8.13636364 17.8636364,7.86363636 C17.8636364,7.54545455 17.8636364,7.13636364 17.8181818,6.63636364 C17.8181818,6.13636364 17.7727273,5.68181818 17.6818182,5.31818182 C17.6363636,4.95454545 17.5454545,4.63636364 17.4545455,4.40909091 C17.2727273,4 17.0454545,3.63636364 16.7272727,3.27272727 C16.4090909,2.95454545 16.0454545,2.72727273 15.5909091,2.54545455 C15.3636364,2.45454545 15.0454545,2.36363636 14.6818182,2.31818182 C14.3181818,2.27272727 13.9090909,2.22727273 13.3636364,2.18181818 C12.8636364,2.18181818 12.4545455,2.13636364 12.1363636,2.13636364 C11.8636364,2.13636364 11.4090909,2.13636364 10.8181818,2.13636364 Z M13.3636364,6.59090909 C14.3181818,7.54545455 14.8181818,8.72727273 14.8181818,10.1363636 C14.8181818,11.5454545 14.3181818,12.6818182 13.3636364,13.6818182 C12.4090909,14.6363636 11.2272727,15.1363636 9.81818182,15.1363636 C8.40909091,15.1363636 7.27272727,14.6363636 6.27272727,13.6818182 C5.31818182,12.7272727 4.81818182,11.5454545 4.81818182,10.1363636 C4.81818182,8.72727273 5.31818182,7.59090909 6.27272727,6.59090909 C7.22727273,5.63636364 8.40909091,5.13636364 9.81818182,5.13636364 C11.2272727,5.13636364 12.4090909,5.59090909 13.3636364,6.59090909 Z M12.1363636,12.4090909 C12.7727273,11.7727273 13.0909091,11 13.0909091,10.1363636 C13.0909091,9.27272727 12.7727273,8.45454545 12.1363636,7.81818182 C11.5,7.18181818 10.7272727,6.86363636 9.81818182,6.86363636 C8.90909091,6.86363636 8.13636364,7.18181818 7.5,7.81818182 C6.86363636,8.45454545 6.54545455,9.22727273 6.54545455,10.1363636 C6.54545455,11.0454545 6.86363636,11.8181818 7.5,12.4090909 C8.13636364,13.0454545 8.90909091,13.3636364 9.81818182,13.3636364 C10.7272727,13.3636364 11.5,13.0454545 12.1363636,12.4090909 Z M15.8636364,4.09090909 C16.0909091,4.31818182 16.2272727,4.59090909 16.2272727,4.90909091 C16.2272727,5.22727273 16.0909091,5.5 15.8636364,5.72727273 C15.6363636,5.95454545 15.3636364,6.09090909 15.0454545,6.09090909 C14.7272727,6.09090909 14.4545455,5.95454545 14.2272727,5.72727273 C14,5.5 13.8636364,5.22727273 13.8636364,4.90909091 C13.8636364,4.59090909 14,4.31818182 14.2272727,4.09090909 C14.4545455,3.86363636 14.7272727,3.72727273 15.0454545,3.72727273 C15.3636364,3.72727273 15.6363636,3.86363636 15.8636364,4.09090909 Z" id="Shape"></path>
            </g>
        </g>
    </g>
</svg>