<svg width="153" height="251" viewBox="0 0 153 251" fill="none" xmlns="http://www.w3.org/2000/svg">
  <path d="M79.76 237.2C79.76 235.2 79.52 233.16 78 231.72C76.68 230.48 74.72 229.88 72.96 229.88C70.24 229.88 67.68 230.8 66.12 233.12C64.92 230.96 62.8 229.88 60.4 229.88C57.88 229.88 55.56 230.92 53.96 232.76C53.8 231.72 53.52 229.88 52.16 229.88C50.92 229.88 46 231.4 46 232.84C46 233.48 46.44 233.76 46.84 233.92C48.2 234.6 48.04 235.32 48.04 236.72V244.36C48.04 244.88 48.08 245.96 47.88 246.48C47.72 246.76 47.4 246.96 47.12 247.16C46.72 247.4 46.4 247.68 46.4 248.2C46.4 249.12 47.12 249.44 47.92 249.44H54.68C55.48 249.44 56.2 249.12 56.2 248.2C56.2 247.68 55.88 247.4 55.48 247.16C55.2 246.96 54.88 246.76 54.72 246.48C54.52 245.96 54.56 244.88 54.56 244.36V238.36C54.56 237.2 54.56 235.8 55.28 234.84C55.96 233.96 56.88 233.48 58.04 233.48C60.68 233.48 60.64 236.24 60.64 238.16V244.36C60.64 244.88 60.68 245.96 60.48 246.48C60.32 246.76 60 246.96 59.72 247.16C59.32 247.4 59 247.68 59 248.2C59 249.12 59.72 249.44 60.52 249.44H67.28C68.08 249.44 68.8 249.12 68.8 248.2C68.8 247.68 68.48 247.4 68.08 247.16C67.8 246.96 67.48 246.76 67.32 246.48C67.12 245.96 67.16 244.88 67.16 244.36V238.36C67.16 237.2 67.16 235.8 67.88 234.84C68.56 233.96 69.48 233.48 70.64 233.48C73.28 233.48 73.24 236.24 73.24 238.16V244.36C73.24 244.88 73.28 245.96 73.08 246.48C72.92 246.76 72.6 246.96 72.32 247.16C71.92 247.4 71.6 247.68 71.6 248.2C71.6 249.12 72.32 249.44 73.12 249.44H79.88C80.68 249.44 81.4 249.12 81.4 248.2C81.4 247.68 81.08 247.4 80.68 247.16C80.4 246.96 80.08 246.76 79.92 246.48C79.72 245.96 79.76 244.88 79.76 244.36V237.2Z" fill="black"/>
  <path d="M90.2369 242.56C92.7169 242.16 95.3169 241.92 97.7169 241.16C100.157 240.36 103.197 238.68 103.197 235.72C103.197 231.52 98.5569 229.88 94.9969 229.88C88.7569 229.88 82.9569 233.88 82.9569 240.6C82.9569 246.48 88.2769 250.04 93.7169 250.04C96.1969 250.04 98.2769 249.6 100.357 248.36C101.437 247.76 103.597 246.08 103.597 244.64C103.597 244.04 102.997 243.56 102.437 243.56C101.637 243.56 101.357 243.96 100.797 244.44C99.1969 245.88 97.5569 246.84 95.3969 246.84C92.7969 246.84 90.7969 245.08 90.2369 242.56ZM89.8769 239.88C89.6769 237.08 91.1969 232.68 94.5569 232.68C96.1569 232.68 96.9569 233.76 96.9569 235.28C96.9569 238.6 92.5169 239.68 89.8769 239.88Z" fill="black"/>
  <path d="M96.68 199.92C95.88 199.92 94.48 199.8 94.48 201C94.48 202.64 96.28 201.92 96.28 204.12C96.28 206.92 94.32 212.4 92.96 214.96L90.56 208.72C90.2 207.48 89.4 204.52 89.4 203.28C89.4 202.04 90.76 202.44 90.76 201.16C90.76 199.92 89.56 199.92 88.6 199.92H83.32C82.56 199.92 81.48 200.04 81.48 201.04C81.48 201.6 81.8 201.92 82.2 202.28C83.2 203.08 83.16 204 83.16 205.24C83.16 208.76 82.36 211.84 80.76 214.96C79.72 213.24 79.04 211.36 78.52 209.44C78.12 207.92 77.28 204.76 77.28 203.32C77.28 202.12 78.68 202.56 78.68 201.2C78.68 200 77.64 199.88 76.64 199.92H70.88C70 199.92 69 200.04 69 201.16C69 201.84 69.56 202.28 70 202.64C70.32 202.92 70.44 203.72 70.52 204.04L70.96 206.04C71.76 209.56 72.92 213.12 74.52 216.36C75.64 218.68 76.2 219.76 78.8 219.76C80.24 219.76 80.96 219.4 81.8 218.24C83.16 216.32 84.12 214.08 84.96 211.84C85.8 214.08 86.68 216.52 88.08 218.4C88.96 219.56 89.72 219.76 91.16 219.76C92.16 219.76 93.04 219.6 93.76 218.88C94.76 217.88 95.68 215.84 96.24 214.52L99.56 204.24C99.88 203.08 99.96 203 100.68 202.2C101 201.84 101.24 201.52 101.24 201.04C101.24 199.72 99.64 199.92 98.76 199.92H96.68Z" fill="black"/>
  <path d="M106.792 197.32C108.592 197.32 110.792 196.24 110.792 194.16C110.792 192 108.832 190.96 106.872 190.96C104.952 190.96 102.992 192.2 102.992 194.32C102.992 196.28 105.032 197.32 106.792 197.32ZM104.192 214.08C104.192 214.6 104.232 215.68 104.032 216.2C103.872 216.48 103.552 216.68 103.272 216.88C102.872 217.12 102.552 217.4 102.552 217.92C102.552 218.84 103.272 219.16 104.072 219.16H110.832C111.632 219.16 112.352 218.84 112.352 217.92C112.352 217.4 112.032 217.12 111.632 216.88C111.352 216.68 111.032 216.48 110.872 216.2C110.672 215.68 110.712 214.6 110.712 214.08V203.52C110.712 202.32 110.952 199.6 109.072 199.6C107.832 199.6 105.552 200.36 104.352 200.76C103.592 200.96 101.912 201.2 101.912 202.28C101.912 202.92 102.432 203.12 102.912 203.4C103.592 203.8 103.912 204 104.072 204.84C104.192 205.72 104.192 206.96 104.192 207.84V214.08Z" fill="black"/>
  <path d="M122.744 203.08H125.064C126.184 203.08 127.464 202.92 127.464 201.52C127.464 199.96 126.184 199.92 124.984 199.92H122.624V195.12C122.624 193.44 122.464 193.2 120.624 193.2C119.024 193.2 118.704 193.72 118.424 195.2C118.264 196.2 117.824 198 117.304 198.84C116.664 199.8 115.704 199.92 114.624 200.08C113.744 200.24 113.024 200.48 113.024 201.52C113.024 203.08 114.264 203.08 115.424 203.08H116.224V216.08C116.224 218.8 117.064 219.16 119.584 219.16H125.064C126.104 219.16 127.744 219.08 127.744 217.64C127.744 215.92 126.224 216.08 125.024 216.08C122.944 216.08 122.744 215.08 122.744 213.28V203.08Z" fill="black"/>
  <path d="M150.7 207.72C150.7 205.52 150.46 203.4 148.9 201.76C147.46 200.24 145.26 199.6 143.22 199.6C141.14 199.6 139.06 200.32 137.38 201.52V192.8C137.38 191.6 137.62 188.88 135.74 188.88C134.5 188.88 132.22 189.64 131.02 190.04C130.26 190.24 128.58 190.48 128.58 191.56C128.58 192.2 129.1 192.4 129.58 192.68C130.26 193.08 130.58 193.28 130.74 194.12C130.86 195 130.86 196.24 130.86 197.12V214.08C130.86 214.6 130.9 215.68 130.7 216.2C130.54 216.48 130.22 216.68 129.94 216.88C129.54 217.12 129.22 217.4 129.22 217.92C129.22 218.84 129.94 219.16 130.74 219.16H137.5C138.3 219.16 139.02 218.84 139.02 217.92C139.02 217.4 138.7 217.12 138.3 216.88C138.02 216.68 137.7 216.48 137.54 216.2C137.34 215.68 137.38 214.6 137.38 214.08V206.8C137.38 205.68 137.5 204.84 138.26 204C138.94 203.24 139.94 202.84 140.94 202.84C143.82 202.84 144.18 205.16 144.18 207.44V214.08C144.18 214.6 144.22 215.68 144.02 216.2C143.86 216.48 143.54 216.68 143.26 216.88C142.86 217.12 142.54 217.4 142.54 217.92C142.54 218.84 143.26 219.16 144.06 219.16H150.82C151.62 219.16 152.34 218.84 152.34 217.92C152.34 217.4 152.02 217.12 151.62 216.88C151.34 216.68 151.02 216.48 150.86 216.2C150.66 215.68 150.7 214.6 150.7 214.08V207.72Z" fill="black"/>
  <path d="M37.68 164.92C36.88 164.92 35.48 164.8 35.48 166C35.48 167.64 37.28 166.92 37.28 169.12C37.28 171.92 35.32 177.4 33.96 179.96L31.56 173.72C31.2 172.48 30.4 169.52 30.4 168.28C30.4 167.04 31.76 167.44 31.76 166.16C31.76 164.92 30.56 164.92 29.6 164.92H24.32C23.56 164.92 22.48 165.04 22.48 166.04C22.48 166.6 22.8 166.92 23.2 167.28C24.2 168.08 24.16 169 24.16 170.24C24.16 173.76 23.36 176.84 21.76 179.96C20.72 178.24 20.04 176.36 19.52 174.44C19.12 172.92 18.28 169.76 18.28 168.32C18.28 167.12 19.68 167.56 19.68 166.2C19.68 165 18.64 164.88 17.64 164.92H11.88C11 164.92 10 165.04 10 166.16C10 166.84 10.56 167.28 11 167.64C11.32 167.92 11.44 168.72 11.52 169.04L11.96 171.04C12.76 174.56 13.92 178.12 15.52 181.36C16.64 183.68 17.2 184.76 19.8 184.76C21.24 184.76 21.96 184.4 22.8 183.24C24.16 181.32 25.12 179.08 25.96 176.84C26.8 179.08 27.68 181.52 29.08 183.4C29.96 184.56 30.72 184.76 32.16 184.76C33.16 184.76 34.04 184.6 34.76 183.88C35.76 182.88 36.68 180.84 37.24 179.52L40.56 169.24C40.88 168.08 40.96 168 41.68 167.2C42 166.84 42.24 166.52 42.24 166.04C42.24 164.72 40.64 164.92 39.76 164.92H37.68Z" fill="black"/>
  <path d="M54.4322 184.76C60.2322 184.76 65.8722 180.84 65.8722 174.56C65.8722 168.56 60.4322 164.6 54.7922 164.6C51.7522 164.6 48.8322 165.44 46.5122 167.48C44.4722 169.32 43.1122 171.96 43.1122 174.76C43.1122 177.68 44.3922 180.4 46.6722 182.28C48.8322 184.04 51.6722 184.76 54.4322 184.76ZM54.4722 182C50.6322 182 49.9922 177.52 49.9922 174.52C49.9922 171.56 50.9122 167.48 54.5522 167.48C58.1122 167.48 58.9922 171.44 58.9922 174.32C58.9922 177.44 58.4722 182 54.4722 182Z" fill="black"/>
  <path d="M76.9969 175.6C76.9969 174.2 77.0769 172.52 77.7569 171.28C78.1169 170.56 78.7569 169.8 79.5969 169.8C80.4369 169.8 81.2369 170.32 82.2769 170.32C83.6769 170.32 84.3969 168.8 84.3969 167.56C84.3969 165.84 83.1169 164.6 81.3969 164.6C79.0769 164.6 77.1169 166.8 76.1569 168.76C75.9569 167.44 75.6769 164.6 73.8769 164.6C72.9969 164.6 70.5169 165.44 69.6769 165.76C68.9169 166.08 67.7169 166.56 67.7169 167.56C67.7169 168.28 68.1969 168.6 68.7969 168.88C69.6369 169.28 69.9969 169.48 70.2369 170.36C70.4769 171.16 70.4769 172 70.4769 171.44V178.76C70.4769 179.32 70.4769 180.44 70.2769 180.96C70.1169 181.32 69.7169 181.52 69.3969 181.68C68.8769 181.96 68.4369 182.24 68.4369 182.88C68.4369 184.16 69.6369 184.16 70.5969 184.16H76.8769C77.8369 184.16 79.0369 184.16 79.0369 182.88C79.0369 182.24 78.5969 181.96 78.0769 181.68C77.7569 181.52 77.3569 181.32 77.1969 180.96C76.9969 180.44 76.9969 179.32 76.9969 178.76V175.6Z" fill="black"/>
  <path d="M87.4141 178.76C87.4141 179.32 87.4141 180.44 87.2141 180.96C87.0541 181.32 86.6541 181.52 86.3341 181.68C85.8141 181.96 85.3741 182.24 85.3741 182.88C85.3741 184.16 86.5741 184.16 87.5341 184.16H93.8141C94.7741 184.16 95.9741 184.16 95.9741 182.88C95.9741 182.24 95.5341 181.96 95.0141 181.68C94.6941 181.52 94.2941 181.32 94.1341 180.96C93.9341 180.44 93.9341 179.32 93.9341 178.76V157.8C93.9341 156.6 94.1741 153.88 92.2941 153.88C91.0541 153.88 88.7741 154.64 87.5741 155.04C86.8141 155.24 85.1341 155.48 85.1341 156.56C85.1341 157.2 85.6541 157.4 86.1341 157.68C86.8141 158.08 87.1341 158.28 87.2941 159.12C87.4141 160 87.4141 161.24 87.4141 162.12V178.76Z" fill="black"/>
  <path d="M112.126 165.92C110.566 165.04 109.246 164.6 107.446 164.6C101.566 164.6 97.2463 169.12 97.2463 175C97.2463 180.4 101.086 184.76 106.526 184.76C108.966 184.76 111.046 183.96 112.406 181.68C112.526 183.48 112.526 184.16 114.566 184.16H118.566C119.526 184.16 120.726 184.16 120.726 182.88C120.726 182.2 120.286 181.92 119.726 181.64C119.366 181.48 119.046 181.28 118.846 180.88C118.606 180.36 118.646 179.24 118.646 178.68V157.8C118.646 156.6 118.886 153.88 117.006 153.88C115.766 153.88 113.486 154.64 112.286 155.04C111.526 155.24 109.846 155.48 109.846 156.56C109.846 157.2 110.366 157.4 110.846 157.68C111.526 158.08 111.846 158.28 112.006 159.12C112.126 160 112.126 161.24 112.126 162.12V165.92ZM112.126 177.04C112.126 178.08 112.086 178.96 111.526 179.88C110.846 180.92 109.686 181.56 108.446 181.56C104.926 181.56 104.166 177.48 104.166 174.72C104.166 171.88 105.086 167.52 108.646 167.52C109.646 167.52 110.646 167.96 111.286 168.72C112.046 169.6 112.126 170.6 112.126 171.68V177.04Z" fill="black"/>
  <path d="M12.72 138.08H15.04C16.16 138.08 17.44 137.92 17.44 136.52C17.44 134.96 16.16 134.92 14.96 134.92H12.6V130.12C12.6 128.44 12.44 128.2 10.6 128.2C9 128.2 8.68 128.72 8.4 130.2C8.24 131.2 7.8 133 7.28 133.84C6.64 134.8 5.68 134.92 4.6 135.08C3.72 135.24 3 135.48 3 136.52C3 138.08 4.24 138.08 5.4 138.08H6.2V151.08C6.2 153.8 7.04 154.16 9.56 154.16H15.04C16.08 154.16 17.72 154.08 17.72 152.64C17.72 150.92 16.2 151.08 15 151.08C12.92 151.08 12.72 150.08 12.72 148.28V138.08Z" fill="black"/>
  <path d="M40.6753 142.72C40.6753 140.52 40.4353 138.4 38.8753 136.76C37.4353 135.24 35.2353 134.6 33.1953 134.6C31.1153 134.6 29.0353 135.32 27.3553 136.52V127.8C27.3553 126.6 27.5953 123.88 25.7153 123.88C24.4753 123.88 22.1953 124.64 20.9953 125.04C20.2353 125.24 18.5553 125.48 18.5553 126.56C18.5553 127.2 19.0753 127.4 19.5553 127.68C20.2353 128.08 20.5553 128.28 20.7153 129.12C20.8353 130 20.8353 131.24 20.8353 132.12V149.08C20.8353 149.6 20.8753 150.68 20.6753 151.2C20.5153 151.48 20.1953 151.68 19.9153 151.88C19.5153 152.12 19.1953 152.4 19.1953 152.92C19.1953 153.84 19.9153 154.16 20.7153 154.16H27.4753C28.2753 154.16 28.9953 153.84 28.9953 152.92C28.9953 152.4 28.6753 152.12 28.2753 151.88C27.9953 151.68 27.6753 151.48 27.5153 151.2C27.3153 150.68 27.3553 149.6 27.3553 149.08V141.8C27.3553 140.68 27.4753 139.84 28.2353 139C28.9153 138.24 29.9153 137.84 30.9153 137.84C33.7953 137.84 34.1553 140.16 34.1553 142.44V149.08C34.1553 149.6 34.1953 150.68 33.9953 151.2C33.8353 151.48 33.5153 151.68 33.2353 151.88C32.8353 152.12 32.5153 152.4 32.5153 152.92C32.5153 153.84 33.2353 154.16 34.0353 154.16H40.7953C41.5953 154.16 42.3153 153.84 42.3153 152.92C42.3153 152.4 41.9953 152.12 41.5953 151.88C41.3153 151.68 40.9953 151.48 40.8353 151.2C40.6353 150.68 40.6753 149.6 40.6753 149.08V142.72Z" fill="black"/>
  <path d="M48.76 132.32C50.56 132.32 52.76 131.24 52.76 129.16C52.76 127 50.8 125.96 48.84 125.96C46.92 125.96 44.96 127.2 44.96 129.32C44.96 131.28 47 132.32 48.76 132.32ZM46.16 149.08C46.16 149.6 46.2 150.68 46 151.2C45.84 151.48 45.52 151.68 45.24 151.88C44.84 152.12 44.52 152.4 44.52 152.92C44.52 153.84 45.24 154.16 46.04 154.16H52.8C53.6 154.16 54.32 153.84 54.32 152.92C54.32 152.4 54 152.12 53.6 151.88C53.32 151.68 53 151.48 52.84 151.2C52.64 150.68 52.68 149.6 52.68 149.08V138.52C52.68 137.32 52.92 134.6 51.04 134.6C49.8 134.6 47.52 135.36 46.32 135.76C45.56 135.96 43.88 136.2 43.88 137.28C43.88 137.92 44.4 138.12 44.88 138.4C45.56 138.8 45.88 139 46.04 139.84C46.16 140.72 46.16 141.96 46.16 142.84V149.08Z" fill="black"/>
  <path d="M66.0322 141.72C64.9122 141.44 63.1122 141 63.1122 139.56C63.1122 137.96 64.7922 137.32 66.1522 137.32C70.0322 137.32 69.8722 140.76 71.6722 140.76C72.8322 140.76 72.8722 139.68 72.8722 138.8C72.8722 137.92 72.8722 136.64 72.0322 136.12C70.4722 135.08 67.5522 134.6 65.7122 134.6C61.5522 134.6 56.5522 136.44 56.5522 141.4C56.5522 148.6 66.9522 145.48 66.9522 149.56C66.9522 151.28 64.9122 151.92 63.5522 151.92C61.5522 151.92 60.7122 151 59.4322 149.6C58.8722 148.96 58.5122 148.44 57.5922 148.44C56.6322 148.44 55.9122 149.32 55.9122 150.28C55.9122 151.92 57.7122 153.12 59.0722 153.72C60.7522 154.48 62.4722 154.76 64.3522 154.76C66.4722 154.76 68.7522 154.28 70.5522 153.2C72.4322 152 73.7522 150.08 73.7522 147.84C73.7522 144.12 70.9522 143 67.9122 142.2L66.0322 141.72Z" fill="black"/>
  <path d="M38.8 90.8C38.8 89.6 39.04 86.88 37.16 86.88C35.92 86.88 33.64 87.64 32.44 88.04C31.68 88.24 30 88.48 30 89.56C30 90.2 30.52 90.4 31 90.68C31.68 91.08 32 91.28 32.16 92.12C32.28 93 32.28 94.24 32.28 95.12V109.2C32.28 111.84 32.52 114.28 34.84 115.96C36.64 117.24 39.32 117.76 41.52 117.76C48 117.76 53.52 114.04 53.52 107.16C53.52 101.6 50.08 97.6 44.44 97.6C42.32 97.6 40.44 98.36 38.8 99.68V90.8ZM38.92 105.64C38.92 104.48 38.96 103.28 39.64 102.28C40.32 101.28 41.44 100.64 42.68 100.64C45.92 100.64 46.6 105.64 46.6 108.04C46.6 110.72 45.84 115 42.4 115C39.12 115 38.92 111.2 38.92 108.76V105.64Z" fill="black"/>
  <path d="M57.2047 110.4C57.2047 112.44 57.6047 114.2 57.9647 114.76C59.2847 116.8 61.1647 117.76 63.7647 117.76C66.4847 117.76 68.6447 116.76 70.5647 114.76C70.8447 116.64 71.1247 117.16 73.0847 117.16H76.5247C77.4847 117.16 78.6847 117.16 78.6847 115.88C78.6847 115.2 78.2447 114.92 77.6847 114.64C77.3247 114.48 77.0047 114.28 76.8047 113.88C76.5647 113.36 76.6047 112.24 76.6047 111.68V98.6C76.3647 98.04 75.8847 97.68 74.8847 97.68C74.2447 97.68 73.6847 97.8 73.0847 97.92C72.0847 98.12 69.9647 98.52 69.1247 99.04C68.7647 99.28 68.5247 99.6 68.5247 100C68.5247 100.52 68.8447 100.76 69.2047 101.04C70.2447 101.76 70.0847 102.4 70.0847 103.76V109.92C70.0847 110.96 70.0847 112.16 69.3647 113.04C68.7247 113.84 67.4847 114.44 66.4447 114.44C63.8047 114.44 63.7247 112.04 63.7247 110.04V100.88C63.7247 99.16 63.6847 97.6 61.5647 97.6C61.0047 97.6 60.2447 97.8 60.2047 97.92C59.2047 98.12 57.0847 98.52 56.2447 99.04C55.8847 99.28 55.6447 99.6 55.6447 100C55.6447 100.52 55.9647 100.76 56.3247 101.04C57.3647 101.76 57.2047 102.4 57.2047 103.76V110.4Z" fill="black"/>
  <path d="M85.2894 95.32C87.0894 95.32 89.2894 94.24 89.2894 92.16C89.2894 90 87.3294 88.96 85.3694 88.96C83.4494 88.96 81.4894 90.2 81.4894 92.32C81.4894 94.28 83.5294 95.32 85.2894 95.32ZM82.6894 112.08C82.6894 112.6 82.7294 113.68 82.5294 114.2C82.3694 114.48 82.0494 114.68 81.7694 114.88C81.3694 115.12 81.0494 115.4 81.0494 115.92C81.0494 116.84 81.7694 117.16 82.5694 117.16H89.3294C90.1294 117.16 90.8494 116.84 90.8494 115.92C90.8494 115.4 90.5294 115.12 90.1294 114.88C89.8494 114.68 89.5294 114.48 89.3694 114.2C89.1694 113.68 89.2094 112.6 89.2094 112.08V101.52C89.2094 100.32 89.4494 97.6 87.5694 97.6C86.3294 97.6 84.0494 98.36 82.8494 98.76C82.0894 98.96 80.4094 99.2 80.4094 100.28C80.4094 100.92 80.9294 101.12 81.4094 101.4C82.0894 101.8 82.4094 102 82.5694 102.84C82.6894 103.72 82.6894 104.96 82.6894 105.84V112.08Z" fill="black"/>
  <path d="M94.4816 111.76C94.4816 112.32 94.4816 113.44 94.2816 113.96C94.1216 114.32 93.7216 114.52 93.4016 114.68C92.8816 114.96 92.4416 115.24 92.4416 115.88C92.4416 117.16 93.6416 117.16 94.6016 117.16H100.882C101.842 117.16 103.042 117.16 103.042 115.88C103.042 115.24 102.602 114.96 102.082 114.68C101.762 114.52 101.362 114.32 101.202 113.96C101.002 113.44 101.002 112.32 101.002 111.76V90.8C101.002 89.6 101.242 86.88 99.3616 86.88C98.1216 86.88 95.8416 87.64 94.6416 88.04C93.8816 88.24 92.2016 88.48 92.2016 89.56C92.2016 90.2 92.7216 90.4 93.2016 90.68C93.8816 91.08 94.2016 91.28 94.3616 92.12C94.4816 93 94.4816 94.24 94.4816 95.12V111.76Z" fill="black"/>
  <path d="M119.194 98.92C117.634 98.04 116.314 97.6 114.514 97.6C108.634 97.6 104.314 102.12 104.314 108C104.314 113.4 108.154 117.76 113.594 117.76C116.034 117.76 118.114 116.96 119.474 114.68C119.594 116.48 119.594 117.16 121.634 117.16H125.634C126.594 117.16 127.794 117.16 127.794 115.88C127.794 115.2 127.354 114.92 126.794 114.64C126.434 114.48 126.114 114.28 125.914 113.88C125.674 113.36 125.714 112.24 125.714 111.68V90.8C125.714 89.6 125.954 86.88 124.074 86.88C122.834 86.88 120.554 87.64 119.354 88.04C118.594 88.24 116.914 88.48 116.914 89.56C116.914 90.2 117.434 90.4 117.914 90.68C118.594 91.08 118.914 91.28 119.074 92.12C119.194 93 119.194 94.24 119.194 95.12V98.92ZM119.194 110.04C119.194 111.08 119.154 111.96 118.594 112.88C117.914 113.92 116.754 114.56 115.514 114.56C111.994 114.56 111.234 110.48 111.234 107.72C111.234 104.88 112.154 100.52 115.714 100.52C116.714 100.52 117.714 100.96 118.354 101.72C119.114 102.6 119.194 103.6 119.194 104.68V110.04Z" fill="black"/>
  <path d="M52.96 60.2C52.2 60.16 51 60.24 51 61.32C51 62.52 52.08 62.04 52.36 63.88C52.88 67.4 53.96 74.4 56.44 76.96C57.64 78.16 59.56 79.12 61.32 79.12C61.96 79.12 62.6 79.04 63.24 78.88C62.76 79.84 62.2 80.76 61.48 81.56C60.92 82.2 59.44 83.52 58.56 83.52C57.88 83.52 56.76 82.64 55.48 82.64C54.28 82.64 53.12 83.44 53.12 84.76C53.12 86.48 55.24 87.24 56.68 87.24C65.12 87.24 69.88 73.92 70.92 67.04C71.08 66.2 71.32 64.12 71.6 63.4C71.72 63 71.88 62.84 72.12 62.52C72.44 62.16 72.76 61.76 72.76 61.24C72.76 59.96 71.08 60.2 70.24 60.2H67.96C67.08 60.2 65.68 60 65.68 61.32C65.68 61.88 66.08 62.24 66.52 62.52C67.56 63.12 67.56 63.6 67.56 64.84C67.56 66.72 66.24 76.12 63.8 76.12C62.32 76.12 61 72.72 60.6 71.6C59.88 69.52 59.32 66.56 59.32 64.36C59.32 62.48 60.68 62.56 60.68 61.52C60.68 60.08 59.24 60.2 58.16 60.2H52.96Z" fill="black"/>
  <path d="M85.0816 80.04C90.8816 80.04 96.5216 76.12 96.5216 69.84C96.5216 63.84 91.0816 59.88 85.4416 59.88C82.4016 59.88 79.4816 60.72 77.1616 62.76C75.1216 64.6 73.7616 67.24 73.7616 70.04C73.7616 72.96 75.0416 75.68 77.3216 77.56C79.4816 79.32 82.3216 80.04 85.0816 80.04ZM85.1216 77.28C81.2816 77.28 80.6416 72.8 80.6416 69.8C80.6416 66.84 81.5616 62.76 85.2016 62.76C88.7616 62.76 89.6416 66.72 89.6416 69.6C89.6416 72.72 89.1216 77.28 85.1216 77.28Z" fill="black"/>
  <path d="M99.9663 72.68C99.9663 74.72 100.366 76.48 100.726 77.04C102.046 79.08 103.926 80.04 106.526 80.04C109.246 80.04 111.406 79.04 113.326 77.04C113.606 78.92 113.886 79.44 115.846 79.44H119.286C120.246 79.44 121.446 79.44 121.446 78.16C121.446 77.48 121.006 77.2 120.446 76.92C120.086 76.76 119.766 76.56 119.566 76.16C119.326 75.64 119.366 74.52 119.366 73.96V60.88C119.126 60.32 118.646 59.96 117.646 59.96C117.006 59.96 116.446 60.08 115.846 60.2C114.846 60.4 112.726 60.8 111.886 61.32C111.526 61.56 111.286 61.88 111.286 62.28C111.286 62.8 111.606 63.04 111.966 63.32C113.006 64.04 112.846 64.68 112.846 66.04V72.2C112.846 73.24 112.846 74.44 112.126 75.32C111.486 76.12 110.246 76.72 109.206 76.72C106.566 76.72 106.486 74.32 106.486 72.32V63.16C106.486 61.44 106.446 59.88 104.326 59.88C103.766 59.88 103.006 60.08 102.966 60.2C101.966 60.4 99.8463 60.8 99.0063 61.32C98.6463 61.56 98.4062 61.88 98.4062 62.28C98.4062 62.8 98.7262 63.04 99.0862 63.32C100.126 64.04 99.9663 64.68 99.9663 66.04V72.68Z" fill="black"/>
  <path d="M67.6529 52.48C73.4529 52.48 79.0929 48.56 79.0929 42.28C79.0929 36.28 73.6529 32.32 68.0129 32.32C64.9729 32.32 62.0529 33.16 59.7329 35.2C57.6929 37.04 56.3329 39.68 56.3329 42.48C56.3329 45.4 57.6129 48.12 59.8929 50C62.0529 51.76 64.8929 52.48 67.6529 52.48ZM67.6929 49.72C63.8529 49.72 63.2129 45.24 63.2129 42.24C63.2129 39.28 64.1329 35.2 67.7729 35.2C71.3329 35.2 72.2129 39.16 72.2129 42.04C72.2129 45.16 71.6929 49.72 67.6929 49.72Z" fill="black"/>
  <path d="M102.538 40.24C102.538 38.24 102.258 36 100.818 34.44C99.3776 32.92 97.1776 32.32 95.1376 32.32C92.5376 32.32 90.3776 33.24 88.7776 35.2C88.6176 34.16 88.3376 32.32 86.9776 32.32C85.7376 32.32 80.8176 33.84 80.8176 35.28C80.8176 35.92 81.2576 36.2 81.6576 36.36C83.0176 37.04 82.8576 37.76 82.8576 39.16V46.8C82.8576 47.32 82.8976 48.4 82.6976 48.92C82.5376 49.2 82.2176 49.4 81.9376 49.6C81.5376 49.84 81.2176 50.12 81.2176 50.64C81.2176 51.56 81.9376 51.88 82.7376 51.88H89.4976C90.2976 51.88 91.0176 51.56 91.0176 50.64C91.0176 50.12 90.6976 49.84 90.2976 49.6C90.0176 49.4 89.6976 49.2 89.5376 48.92C89.3376 48.4 89.3776 47.32 89.3776 46.8V40.6C89.3776 39.52 89.3776 38.28 89.9776 37.32C90.6576 36.2 91.7376 35.68 93.0576 35.68C95.9376 35.68 96.0176 38.16 96.0176 40.36V46.8C96.0176 47.32 96.0576 48.4 95.8576 48.92C95.6976 49.2 95.3776 49.4 95.0976 49.6C94.6976 49.84 94.3776 50.12 94.3776 50.64C94.3776 51.56 95.0976 51.88 95.8976 51.88H102.658C103.458 51.88 104.178 51.56 104.178 50.64C104.178 50.12 103.858 49.84 103.458 49.6C103.178 49.4 102.858 49.2 102.698 48.92C102.498 48.4 102.538 47.32 102.538 46.8V40.24Z" fill="black"/>
  <path d="M111.462 27.24C111.222 28.88 110.182 30.24 109.022 31.32C108.902 31.44 108.742 31.6 108.742 31.8C108.742 32.2 109.302 32.52 109.702 32.52C110.342 32.52 111.702 31.4 112.102 31.04C113.622 29.72 114.822 27.8 114.822 25.72C114.822 23.6 113.382 22 111.222 22C109.582 22 107.742 23 107.742 24.84C107.742 26.32 108.942 27.36 110.382 27.36C110.742 27.36 111.102 27.32 111.462 27.24Z" fill="black"/>
  <path d="M127.395 35.8H129.715C130.835 35.8 132.115 35.64 132.115 34.24C132.115 32.68 130.835 32.64 129.635 32.64H127.275V27.84C127.275 26.16 127.115 25.92 125.275 25.92C123.675 25.92 123.355 26.44 123.075 27.92C122.915 28.92 122.475 30.72 121.955 31.56C121.315 32.52 120.355 32.64 119.275 32.8C118.395 32.96 117.675 33.2 117.675 34.24C117.675 35.8 118.915 35.8 120.075 35.8H120.875V48.8C120.875 51.52 121.715 51.88 124.235 51.88H129.715C130.755 51.88 132.395 51.8 132.395 50.36C132.395 48.64 130.875 48.8 129.675 48.8C127.595 48.8 127.395 47.8 127.395 46V35.8Z" fill="black"/>
  <path fill-rule="evenodd" clip-rule="evenodd" d="M2.22857 0C0.997765 0 0 0.997767 0 2.22857V49.7714C0 51.0022 0.997767 52 2.22857 52H49.7714C51.0022 52 52 51.0022 52 49.7714V2.22857C52 0.997765 51.0022 0 49.7714 0H2.22857ZM26.0868 27.4784C25.8887 26.8638 25.6912 26.251 25.4902 25.6426L22.9634 33.8632C22.5928 34.8739 21.8516 36.6595 21.2789 37.4681C20.6724 38.344 19.8975 38.5462 18.8868 38.5462C16.5459 38.5462 16.1409 37.6105 15.3037 35.6759C15.2854 35.6336 15.2669 35.5909 15.2482 35.5477C13.2267 30.831 11.8791 24.9688 10.9695 19.9151L10.5315 17.422C10.5149 17.3293 10.5003 17.2435 10.4867 17.1635C10.3618 16.4291 10.3206 16.1866 9.62182 15.6701C9.21752 15.3668 8.91431 15.0636 8.91431 14.5246C8.91431 13.352 10.1296 13.3664 11.0329 13.3771C11.1158 13.3781 11.1962 13.3791 11.2727 13.3791H16.7306C17.5392 13.3791 18.4151 13.5139 18.4151 14.5583C18.4151 15.0973 18.0108 15.3668 17.5729 15.6027C16.8654 15.9733 16.6969 16.1754 16.6969 16.984C16.6969 19.1402 17.5392 22.9136 18.0782 25.0698L20.4703 32.6503C22.2896 28.0009 23.7046 23.3853 23.7046 18.3653C23.7046 18.2741 23.7053 18.1836 23.7059 18.0938C23.7132 17.0559 23.7198 16.1218 22.7276 15.5016C22.6801 15.4671 22.6321 15.4337 22.5844 15.4005C22.26 15.1748 21.9527 14.9609 21.9527 14.4909C21.9527 13.4802 22.8623 13.3791 23.6372 13.3791H29.7353C30.5776 13.3791 31.2851 13.5812 31.2851 14.5583C31.2851 15.0818 30.9332 15.2816 30.5512 15.4986C30.0972 15.7564 29.6005 16.0385 29.6005 16.9166C29.6005 18.837 30.7797 23.1831 31.3861 25.1709L34.2836 32.7514L36.6419 25.7773C37.2484 23.5537 38.1243 19.814 38.1243 17.5904C38.1243 16.3044 37.4438 15.9463 36.8356 15.6264C36.3446 15.368 35.9007 15.1345 35.9007 14.4572C35.9007 13.3337 37.2416 13.3596 38.0737 13.3757C38.1649 13.3774 38.2499 13.3791 38.3265 13.3791H41.2913C41.9988 13.3791 42.9421 13.5139 42.9421 14.4235C42.9421 14.8326 42.6482 15.1241 42.3898 15.3804C42.3716 15.3985 42.3535 15.4164 42.3357 15.4342C41.6619 16.0407 41.3923 16.3439 41.1902 17.2535L40.6174 20.69C40.1795 23.7559 38.8655 28.54 37.8548 31.4711L36.5745 34.8065C36.5049 34.9666 36.4253 35.1597 36.3382 35.3708C36.0039 36.1815 35.5605 37.2565 35.1595 37.7376C34.5868 38.4114 33.6097 38.5462 32.7675 38.5462C31.2177 38.5462 30.5776 38.2093 29.8027 36.8616C28.1637 33.9228 27.1172 30.6757 26.0868 27.4784Z" fill="black"/>
  <circle cx="108.5" cy="248" r="1.5" fill="black"/>
</svg>
