<?xml version="1.0" encoding="UTF-8"?>
<svg width="35px" height="20px" viewBox="0 0 35 20" version="1.1" xmlns="http://www.w3.org/2000/svg" xmlns:xlink="http://www.w3.org/1999/xlink">
    <!-- Generator: Sketch 51.2 (57519) - http://www.bohemiancoding.com/sketch -->
    <title>Shape</title>
    <desc>Created with Sketch.</desc>
    <defs></defs>
    <g id="attempt-003" stroke="none" stroke-width="1" fill="none" fill-rule="evenodd">
        <g id="Desktop-HD-Copy-59" transform="translate(-1249.000000, -86.000000)" fill="#000000" fill-rule="nonzero">
            <g id="arena-logo" transform="translate(1249.000000, 86.000000)">
                <path d="M34.5233553,14.0125843 L29.7230592,10.3307865 C29.4292434,10.1060674 29.4292434,9.73707865 29.7230592,9.51168539 L34.5235855,5.83078652 C34.8183224,5.60561798 34.9415132,5.22516854 34.7975987,4.9858427 C34.6534539,4.74719101 34.2509539,4.66224719 33.9041776,4.79707865 L28.1959539,7.01595506 C27.8489474,7.15213483 27.5219737,6.96651685 27.4699342,6.6047191 L26.6115132,0.65752809 C26.5585526,0.295955056 26.2799342,0 25.9914145,0 C25.7042763,0 25.4258882,0.295955056 25.3743092,0.657303371 L24.5154276,6.60494382 C24.4629276,6.96674157 24.1364145,7.15191011 23.7889474,7.01617978 L18.1751316,4.8341573 C17.8269737,4.6988764 17.2598355,4.6988764 16.9125987,4.8341573 L11.2978618,7.01617978 C10.950625,7.15191011 10.6236513,6.96674157 10.5716118,6.60494382 L9.71388158,0.657303371 C9.66092105,0.295955056 9.38276316,0 9.09539474,0 C8.80710526,0 8.52825658,0.295955056 8.47644737,0.657303371 L7.61756579,6.60494382 C7.56552632,6.96674157 7.23878289,7.15191011 6.89154605,7.01617978 L1.18355263,4.79775281 C0.836546053,4.66224719 0.434736842,4.74764045 0.290592105,4.98606742 C0.146677632,5.22561798 0.269407895,5.60629213 0.563223684,5.83101124 L5.36421053,9.51191011 C5.65825658,9.73730337 5.65825658,10.1062921 5.36421053,10.331236 L0.563223684,14.0125843 C0.268486842,14.2377528 0.146447368,14.6408989 0.290131579,14.9078652 C0.434506579,15.1752809 0.836315789,15.2826966 1.18286184,15.1469663 L6.83973684,12.9298876 C7.18743421,12.794382 7.51072368,12.9788764 7.55930921,13.3406742 L8.37536184,19.3397753 C8.42463816,19.7008989 8.74792763,19.9966292 9.09378289,19.9966292 C9.43917763,19.9966292 9.76269737,19.7011236 9.81220395,19.3397753 L10.6296382,13.3406742 C10.6779934,12.9788764 11.0026645,12.7946067 11.3485197,12.9298876 L16.9125987,15.1092135 C17.259375,15.2453933 17.8267434,15.2453933 18.17375,15.1092135 L23.7369079,12.9298876 C24.0832237,12.794382 24.4069737,12.9788764 24.4564803,13.3406742 L25.2739145,19.3397753 C25.3227303,19.7008989 25.64625,19.9966292 25.9911842,19.9966292 C26.3370395,19.9966292 26.6605592,19.7011236 26.7096053,19.3397753 L27.5270395,13.3406742 C27.5767763,12.9788764 27.9000658,12.7946067 28.2463816,12.9298876 L33.9039474,15.1469663 C34.2493421,15.2826966 34.6523026,15.1750562 34.7964474,14.9080899 C34.9408224,14.641573 34.8180921,14.238427 34.5235855,14.0132584 L34.5233553,14.0125843 Z M22.3101974,10.3775281 L18.0825658,13.5539326 C17.7866776,13.7764045 17.3012829,13.7764045 17.0063158,13.5539326 L12.7773026,10.3775281 C12.4816447,10.1550562 12.4793421,9.78876404 12.7726974,9.56292135 L17.0095395,6.30606742 C17.3028947,6.08022472 17.7839145,6.08022472 18.0775,6.30606742 L22.3143421,9.56292135 C22.6083882,9.78853933 22.6060855,10.1548315 22.3097368,10.3777528 L22.3101974,10.3775281 Z" id="Shape"></path>
            </g>
        </g>
    </g>
</svg>